<mxfile host="app.diagrams.net" modified="2022-11-08T07:38:52.917Z" agent="5.0 (Windows NT 10.0; Win64; x64) AppleWebKit/537.36 (KHTML, like Gecko) Chrome/107.0.0.0 Safari/537.36" etag="gdrIoFmhOu01xSG2F90t" version="20.0.3" type="github">
  <diagram id="C5RBs43oDa-KdzZeNtuy" name="Page-1">
    <mxGraphModel dx="1422" dy="754" grid="1" gridSize="10" guides="1" tooltips="1" connect="1" arrows="1" fold="1" page="1" pageScale="1" pageWidth="827" pageHeight="1169" background="#F4F1DE" math="0" shadow="0">
      <root>
        <mxCell id="WIyWlLk6GJQsqaUBKTNV-0" />
        <mxCell id="WIyWlLk6GJQsqaUBKTNV-1" parent="WIyWlLk6GJQsqaUBKTNV-0" />
        <mxCell id="WIyWlLk6GJQsqaUBKTNV-2" value="" style="rounded=0;html=1;jettySize=auto;orthogonalLoop=1;fontSize=11;endArrow=block;endFill=0;endSize=8;strokeWidth=1;shadow=0;labelBackgroundColor=none;edgeStyle=orthogonalEdgeStyle;entryX=0.5;entryY=0;entryDx=0;entryDy=0;exitX=0.5;exitY=1;exitDx=0;exitDy=0;strokeColor=#E07A5F;fontColor=#393C56;" parent="WIyWlLk6GJQsqaUBKTNV-1" source="P4Yn5vLspaWMZoXm2F2t-19" target="P4Yn5vLspaWMZoXm2F2t-16" edge="1">
          <mxGeometry relative="1" as="geometry">
            <mxPoint x="316.2" y="330" as="sourcePoint" />
            <mxPoint x="286.2" y="290" as="targetPoint" />
          </mxGeometry>
        </mxCell>
        <mxCell id="P4Yn5vLspaWMZoXm2F2t-17" style="edgeStyle=orthogonalEdgeStyle;rounded=0;orthogonalLoop=1;jettySize=auto;html=1;exitX=0.5;exitY=1;exitDx=0;exitDy=0;entryX=0.465;entryY=-0.05;entryDx=0;entryDy=0;entryPerimeter=0;labelBackgroundColor=#F4F1DE;strokeColor=#E07A5F;fontColor=#393C56;" edge="1" parent="WIyWlLk6GJQsqaUBKTNV-1" source="P4Yn5vLspaWMZoXm2F2t-16" target="P4Yn5vLspaWMZoXm2F2t-1">
          <mxGeometry relative="1" as="geometry">
            <mxPoint x="454.95" y="340" as="sourcePoint" />
            <mxPoint x="534.95" y="450" as="targetPoint" />
          </mxGeometry>
        </mxCell>
        <mxCell id="P4Yn5vLspaWMZoXm2F2t-5" value="" style="edgeStyle=orthogonalEdgeStyle;rounded=0;orthogonalLoop=1;jettySize=auto;html=1;labelBackgroundColor=#F4F1DE;strokeColor=#E07A5F;fontColor=#393C56;" edge="1" parent="WIyWlLk6GJQsqaUBKTNV-1" source="P4Yn5vLspaWMZoXm2F2t-1" target="P4Yn5vLspaWMZoXm2F2t-4">
          <mxGeometry relative="1" as="geometry" />
        </mxCell>
        <mxCell id="P4Yn5vLspaWMZoXm2F2t-38" style="edgeStyle=orthogonalEdgeStyle;rounded=0;orthogonalLoop=1;jettySize=auto;html=1;exitX=0;exitY=0.5;exitDx=0;exitDy=0;entryX=0;entryY=0.5;entryDx=0;entryDy=0;labelBackgroundColor=#F4F1DE;strokeColor=#E07A5F;fontColor=#393C56;" edge="1" parent="WIyWlLk6GJQsqaUBKTNV-1" source="P4Yn5vLspaWMZoXm2F2t-1" target="P4Yn5vLspaWMZoXm2F2t-16">
          <mxGeometry relative="1" as="geometry">
            <mxPoint x="40" y="390" as="targetPoint" />
            <Array as="points">
              <mxPoint x="60" y="390" />
              <mxPoint x="60" y="300" />
            </Array>
          </mxGeometry>
        </mxCell>
        <mxCell id="P4Yn5vLspaWMZoXm2F2t-1" value="AI Program 촬영 신호 확인" style="rounded=0;whiteSpace=wrap;html=1;fillColor=#F2CC8F;strokeColor=#E07A5F;fontColor=#393C56;" vertex="1" parent="WIyWlLk6GJQsqaUBKTNV-1">
          <mxGeometry x="109.95" y="360" width="167.5" height="60" as="geometry" />
        </mxCell>
        <mxCell id="P4Yn5vLspaWMZoXm2F2t-7" value="" style="edgeStyle=orthogonalEdgeStyle;rounded=0;orthogonalLoop=1;jettySize=auto;html=1;labelBackgroundColor=#F4F1DE;strokeColor=#E07A5F;fontColor=#393C56;" edge="1" parent="WIyWlLk6GJQsqaUBKTNV-1" source="P4Yn5vLspaWMZoXm2F2t-4" target="P4Yn5vLspaWMZoXm2F2t-6">
          <mxGeometry relative="1" as="geometry" />
        </mxCell>
        <mxCell id="P4Yn5vLspaWMZoXm2F2t-37" style="edgeStyle=orthogonalEdgeStyle;rounded=0;orthogonalLoop=1;jettySize=auto;html=1;exitX=0;exitY=0.5;exitDx=0;exitDy=0;entryX=0;entryY=0.5;entryDx=0;entryDy=0;labelBackgroundColor=#F4F1DE;strokeColor=#E07A5F;fontColor=#393C56;" edge="1" parent="WIyWlLk6GJQsqaUBKTNV-1" source="P4Yn5vLspaWMZoXm2F2t-4" target="P4Yn5vLspaWMZoXm2F2t-16">
          <mxGeometry relative="1" as="geometry">
            <mxPoint x="40" y="480" as="targetPoint" />
            <Array as="points">
              <mxPoint x="60" y="480" />
              <mxPoint x="60" y="300" />
            </Array>
          </mxGeometry>
        </mxCell>
        <mxCell id="P4Yn5vLspaWMZoXm2F2t-4" value="5G 모듈 촬영 신호 확인" style="whiteSpace=wrap;html=1;rounded=0;fillColor=#F2CC8F;strokeColor=#E07A5F;fontColor=#393C56;" vertex="1" parent="WIyWlLk6GJQsqaUBKTNV-1">
          <mxGeometry x="118.7" y="450" width="150" height="60" as="geometry" />
        </mxCell>
        <mxCell id="P4Yn5vLspaWMZoXm2F2t-21" value="" style="edgeStyle=orthogonalEdgeStyle;rounded=0;orthogonalLoop=1;jettySize=auto;html=1;labelBackgroundColor=#F4F1DE;strokeColor=#E07A5F;fontColor=#393C56;" edge="1" parent="WIyWlLk6GJQsqaUBKTNV-1" source="P4Yn5vLspaWMZoXm2F2t-6" target="P4Yn5vLspaWMZoXm2F2t-20">
          <mxGeometry relative="1" as="geometry" />
        </mxCell>
        <mxCell id="P4Yn5vLspaWMZoXm2F2t-6" value="카메라 촬영 신호 확인" style="whiteSpace=wrap;html=1;rounded=0;fillColor=#F2CC8F;strokeColor=#E07A5F;fontColor=#393C56;" vertex="1" parent="WIyWlLk6GJQsqaUBKTNV-1">
          <mxGeometry x="116.2" y="540" width="155" height="60" as="geometry" />
        </mxCell>
        <mxCell id="P4Yn5vLspaWMZoXm2F2t-16" value="로봇 일시정지 &amp;amp; &lt;br&gt;로봇 카메라 촬영 신호 전송" style="rounded=0;whiteSpace=wrap;html=1;fillColor=#F2CC8F;strokeColor=#E07A5F;fontColor=#393C56;" vertex="1" parent="WIyWlLk6GJQsqaUBKTNV-1">
          <mxGeometry x="109.95" y="270" width="155" height="60" as="geometry" />
        </mxCell>
        <mxCell id="P4Yn5vLspaWMZoXm2F2t-19" value="로봇 Cam Pos 이동" style="shape=hexagon;perimeter=hexagonPerimeter2;whiteSpace=wrap;html=1;fixedSize=1;fillColor=#F2CC8F;strokeColor=#E07A5F;fontColor=#393C56;" vertex="1" parent="WIyWlLk6GJQsqaUBKTNV-1">
          <mxGeometry x="127.45" y="180" width="120" height="50" as="geometry" />
        </mxCell>
        <mxCell id="P4Yn5vLspaWMZoXm2F2t-25" value="" style="edgeStyle=orthogonalEdgeStyle;rounded=0;orthogonalLoop=1;jettySize=auto;html=1;entryX=0;entryY=0.5;entryDx=0;entryDy=0;labelBackgroundColor=#F4F1DE;strokeColor=#E07A5F;fontColor=#393C56;" edge="1" parent="WIyWlLk6GJQsqaUBKTNV-1" source="P4Yn5vLspaWMZoXm2F2t-20" target="P4Yn5vLspaWMZoXm2F2t-52">
          <mxGeometry relative="1" as="geometry">
            <mxPoint x="357.6500000000001" y="215" as="targetPoint" />
            <Array as="points">
              <mxPoint x="310" y="660" />
              <mxPoint x="310" y="300" />
            </Array>
          </mxGeometry>
        </mxCell>
        <mxCell id="P4Yn5vLspaWMZoXm2F2t-26" value="" style="edgeStyle=orthogonalEdgeStyle;rounded=0;orthogonalLoop=1;jettySize=auto;exitX=0;exitY=0.5;exitDx=0;exitDy=0;entryX=0;entryY=0.5;entryDx=0;entryDy=0;html=1;labelBackgroundColor=#F4F1DE;strokeColor=#E07A5F;fontColor=#393C56;" edge="1" parent="WIyWlLk6GJQsqaUBKTNV-1" source="P4Yn5vLspaWMZoXm2F2t-6" target="P4Yn5vLspaWMZoXm2F2t-16">
          <mxGeometry relative="1" as="geometry">
            <mxPoint x="76.2" y="290" as="targetPoint" />
            <Array as="points">
              <mxPoint x="60" y="570" />
              <mxPoint x="60" y="300" />
            </Array>
          </mxGeometry>
        </mxCell>
        <mxCell id="P4Yn5vLspaWMZoXm2F2t-27" value="No" style="edgeLabel;html=1;align=center;verticalAlign=middle;resizable=0;points=[];labelBackgroundColor=#F4F1DE;fontColor=#393C56;" vertex="1" connectable="0" parent="P4Yn5vLspaWMZoXm2F2t-26">
          <mxGeometry x="-0.0491" relative="1" as="geometry">
            <mxPoint x="-20" as="offset" />
          </mxGeometry>
        </mxCell>
        <mxCell id="P4Yn5vLspaWMZoXm2F2t-20" value="카메라 촬영 ON" style="whiteSpace=wrap;html=1;rounded=0;fillColor=#F2CC8F;strokeColor=#E07A5F;fontColor=#393C56;" vertex="1" parent="WIyWlLk6GJQsqaUBKTNV-1">
          <mxGeometry x="133.7" y="630" width="120" height="60" as="geometry" />
        </mxCell>
        <mxCell id="P4Yn5vLspaWMZoXm2F2t-40" value="" style="edgeStyle=orthogonalEdgeStyle;rounded=0;orthogonalLoop=1;jettySize=auto;html=1;labelBackgroundColor=#F4F1DE;strokeColor=#E07A5F;fontColor=#393C56;exitX=0.5;exitY=1;exitDx=0;exitDy=0;" edge="1" parent="WIyWlLk6GJQsqaUBKTNV-1" source="P4Yn5vLspaWMZoXm2F2t-52" target="P4Yn5vLspaWMZoXm2F2t-39">
          <mxGeometry relative="1" as="geometry">
            <mxPoint x="421.32" y="330" as="sourcePoint" />
          </mxGeometry>
        </mxCell>
        <mxCell id="P4Yn5vLspaWMZoXm2F2t-42" value="" style="edgeStyle=orthogonalEdgeStyle;rounded=0;orthogonalLoop=1;jettySize=auto;html=1;labelBackgroundColor=#F4F1DE;strokeColor=#E07A5F;fontColor=#393C56;" edge="1" parent="WIyWlLk6GJQsqaUBKTNV-1" source="P4Yn5vLspaWMZoXm2F2t-39" target="P4Yn5vLspaWMZoXm2F2t-41">
          <mxGeometry relative="1" as="geometry" />
        </mxCell>
        <mxCell id="P4Yn5vLspaWMZoXm2F2t-39" value="5G 모듈 Image Data 확인" style="whiteSpace=wrap;html=1;rounded=0;fillColor=#F2CC8F;strokeColor=#E07A5F;fontColor=#393C56;" vertex="1" parent="WIyWlLk6GJQsqaUBKTNV-1">
          <mxGeometry x="330.94" y="360" width="180.63" height="60" as="geometry" />
        </mxCell>
        <mxCell id="P4Yn5vLspaWMZoXm2F2t-44" value="Yes" style="edgeStyle=orthogonalEdgeStyle;rounded=0;orthogonalLoop=1;jettySize=auto;html=1;exitX=0.5;exitY=1;exitDx=0;exitDy=0;labelBackgroundColor=#F4F1DE;strokeColor=#E07A5F;fontColor=#393C56;entryX=0.5;entryY=0;entryDx=0;entryDy=0;" edge="1" parent="WIyWlLk6GJQsqaUBKTNV-1" source="P4Yn5vLspaWMZoXm2F2t-61" target="P4Yn5vLspaWMZoXm2F2t-63">
          <mxGeometry relative="1" as="geometry">
            <mxPoint x="622.8200000000002" y="505" as="sourcePoint" />
            <mxPoint x="630" y="550" as="targetPoint" />
          </mxGeometry>
        </mxCell>
        <mxCell id="P4Yn5vLspaWMZoXm2F2t-48" value="" style="edgeStyle=orthogonalEdgeStyle;rounded=0;orthogonalLoop=1;jettySize=auto;html=1;labelBackgroundColor=#F4F1DE;strokeColor=#E07A5F;fontColor=#393C56;entryX=0;entryY=0.5;entryDx=0;entryDy=0;" edge="1" parent="WIyWlLk6GJQsqaUBKTNV-1" source="P4Yn5vLspaWMZoXm2F2t-41" target="P4Yn5vLspaWMZoXm2F2t-61">
          <mxGeometry relative="1" as="geometry">
            <mxPoint x="542.8200000000002" y="480" as="targetPoint" />
          </mxGeometry>
        </mxCell>
        <mxCell id="P4Yn5vLspaWMZoXm2F2t-41" value="AI Program Image Data&amp;nbsp;확인" style="whiteSpace=wrap;html=1;rounded=0;fillColor=#F2CC8F;strokeColor=#E07A5F;fontColor=#393C56;" vertex="1" parent="WIyWlLk6GJQsqaUBKTNV-1">
          <mxGeometry x="330" y="450" width="182.51" height="60" as="geometry" />
        </mxCell>
        <mxCell id="P4Yn5vLspaWMZoXm2F2t-57" value="" style="edgeStyle=orthogonalEdgeStyle;rounded=0;sketch=0;orthogonalLoop=1;jettySize=auto;html=1;fontColor=#393C56;strokeColor=#E07A5F;fillColor=#F2CC8F;exitX=0;exitY=0.5;exitDx=0;exitDy=0;" edge="1" parent="WIyWlLk6GJQsqaUBKTNV-1" source="P4Yn5vLspaWMZoXm2F2t-63" target="P4Yn5vLspaWMZoXm2F2t-45">
          <mxGeometry relative="1" as="geometry">
            <mxPoint x="565" y="570" as="sourcePoint" />
          </mxGeometry>
        </mxCell>
        <mxCell id="P4Yn5vLspaWMZoXm2F2t-50" value="" style="edgeStyle=orthogonalEdgeStyle;rounded=0;orthogonalLoop=1;jettySize=auto;html=1;labelBackgroundColor=#F4F1DE;strokeColor=#E07A5F;fontColor=#393C56;entryX=0.5;entryY=0;entryDx=0;entryDy=0;" edge="1" parent="WIyWlLk6GJQsqaUBKTNV-1" source="P4Yn5vLspaWMZoXm2F2t-45" target="P4Yn5vLspaWMZoXm2F2t-69">
          <mxGeometry relative="1" as="geometry">
            <mxPoint x="421.25999999999976" y="640" as="targetPoint" />
          </mxGeometry>
        </mxCell>
        <mxCell id="P4Yn5vLspaWMZoXm2F2t-45" value="AI Program 연산 처리된 Data-Set 전송" style="whiteSpace=wrap;html=1;rounded=0;fillColor=#F2CC8F;strokeColor=#E07A5F;fontColor=#393C56;" vertex="1" parent="WIyWlLk6GJQsqaUBKTNV-1">
          <mxGeometry x="346.88" y="550" width="148.75" height="60" as="geometry" />
        </mxCell>
        <mxCell id="P4Yn5vLspaWMZoXm2F2t-52" value="카메라로 촬영된 Image Data" style="rounded=0;whiteSpace=wrap;html=1;sketch=0;fontColor=#393C56;strokeColor=#E07A5F;fillColor=#F2CC8F;" vertex="1" parent="WIyWlLk6GJQsqaUBKTNV-1">
          <mxGeometry x="361.25" y="270" width="120" height="60" as="geometry" />
        </mxCell>
        <mxCell id="P4Yn5vLspaWMZoXm2F2t-61" value="Image Data의 AI 분석" style="shape=parallelogram;perimeter=parallelogramPerimeter;whiteSpace=wrap;html=1;fixedSize=1;rounded=0;sketch=0;fontColor=#393C56;strokeColor=#E07A5F;fillColor=#F2CC8F;" vertex="1" parent="WIyWlLk6GJQsqaUBKTNV-1">
          <mxGeometry x="540" y="450" width="180" height="60" as="geometry" />
        </mxCell>
        <mxCell id="P4Yn5vLspaWMZoXm2F2t-63" value="JSON Data-Set" style="shape=dataStorage;whiteSpace=wrap;html=1;fixedSize=1;rounded=0;sketch=0;fontColor=#393C56;strokeColor=#E07A5F;fillColor=#F2CC8F;" vertex="1" parent="WIyWlLk6GJQsqaUBKTNV-1">
          <mxGeometry x="580" y="540" width="100" height="80" as="geometry" />
        </mxCell>
        <mxCell id="P4Yn5vLspaWMZoXm2F2t-71" value="" style="edgeStyle=orthogonalEdgeStyle;rounded=0;sketch=0;orthogonalLoop=1;jettySize=auto;html=1;fontColor=#393C56;strokeColor=#E07A5F;fillColor=#F2CC8F;" edge="1" parent="WIyWlLk6GJQsqaUBKTNV-1" source="P4Yn5vLspaWMZoXm2F2t-69" target="P4Yn5vLspaWMZoXm2F2t-70">
          <mxGeometry relative="1" as="geometry" />
        </mxCell>
        <mxCell id="P4Yn5vLspaWMZoXm2F2t-69" value="로봇 Data-Set 수신" style="rounded=0;whiteSpace=wrap;html=1;sketch=0;fontColor=#393C56;strokeColor=#E07A5F;fillColor=#F2CC8F;" vertex="1" parent="WIyWlLk6GJQsqaUBKTNV-1">
          <mxGeometry x="361.25" y="640" width="120" height="50" as="geometry" />
        </mxCell>
        <mxCell id="P4Yn5vLspaWMZoXm2F2t-72" value="Yes" style="edgeStyle=orthogonalEdgeStyle;rounded=0;sketch=0;orthogonalLoop=1;jettySize=auto;html=1;entryX=0;entryY=0.5;entryDx=0;entryDy=0;fontColor=#393C56;strokeColor=#E07A5F;fillColor=#F2CC8F;labelBackgroundColor=none;" edge="1" parent="WIyWlLk6GJQsqaUBKTNV-1" source="P4Yn5vLspaWMZoXm2F2t-70" target="P4Yn5vLspaWMZoXm2F2t-45">
          <mxGeometry x="-0.9033" y="10" relative="1" as="geometry">
            <Array as="points">
              <mxPoint x="330" y="750" />
              <mxPoint x="330" y="580" />
            </Array>
            <mxPoint as="offset" />
          </mxGeometry>
        </mxCell>
        <mxCell id="P4Yn5vLspaWMZoXm2F2t-75" value="No" style="edgeStyle=orthogonalEdgeStyle;rounded=0;sketch=0;orthogonalLoop=1;jettySize=auto;html=1;labelBackgroundColor=none;fontColor=#393C56;strokeColor=#E07A5F;fillColor=#F2CC8F;entryX=0;entryY=0.5;entryDx=0;entryDy=0;exitX=1;exitY=0.5;exitDx=0;exitDy=0;" edge="1" parent="WIyWlLk6GJQsqaUBKTNV-1" source="P4Yn5vLspaWMZoXm2F2t-79" target="P4Yn5vLspaWMZoXm2F2t-76">
          <mxGeometry x="-0.3915" y="-10" relative="1" as="geometry">
            <mxPoint x="580" y="750" as="sourcePoint" />
            <mxPoint x="580.0050000000001" y="750" as="targetPoint" />
            <mxPoint as="offset" />
          </mxGeometry>
        </mxCell>
        <mxCell id="P4Yn5vLspaWMZoXm2F2t-77" value="No" style="edgeStyle=orthogonalEdgeStyle;rounded=0;sketch=0;orthogonalLoop=1;jettySize=auto;html=1;labelBackgroundColor=none;fontColor=#393C56;strokeColor=#E07A5F;fillColor=#F2CC8F;entryX=0.5;entryY=0;entryDx=0;entryDy=0;exitX=0.5;exitY=1;exitDx=0;exitDy=0;" edge="1" parent="WIyWlLk6GJQsqaUBKTNV-1" source="P4Yn5vLspaWMZoXm2F2t-70" target="P4Yn5vLspaWMZoXm2F2t-79">
          <mxGeometry x="1" y="-22" relative="1" as="geometry">
            <mxPoint x="421.25" y="820" as="targetPoint" />
            <Array as="points">
              <mxPoint x="422" y="810" />
              <mxPoint x="422" y="810" />
            </Array>
            <mxPoint as="offset" />
          </mxGeometry>
        </mxCell>
        <mxCell id="P4Yn5vLspaWMZoXm2F2t-70" value="추가 Data-Set 필요" style="rhombus;whiteSpace=wrap;html=1;fillColor=#F2CC8F;strokeColor=#E07A5F;fontColor=#393C56;rounded=0;sketch=0;" vertex="1" parent="WIyWlLk6GJQsqaUBKTNV-1">
          <mxGeometry x="350" y="720" width="143.27" height="60" as="geometry" />
        </mxCell>
        <mxCell id="P4Yn5vLspaWMZoXm2F2t-76" value="로봇 동작 실행" style="rounded=1;whiteSpace=wrap;html=1;sketch=0;fontColor=#393C56;strokeColor=#E07A5F;fillColor=#F2CC8F;" vertex="1" parent="WIyWlLk6GJQsqaUBKTNV-1">
          <mxGeometry x="540" y="810" width="120" height="60" as="geometry" />
        </mxCell>
        <mxCell id="P4Yn5vLspaWMZoXm2F2t-80" value="Yes" style="edgeStyle=orthogonalEdgeStyle;rounded=0;sketch=0;orthogonalLoop=1;jettySize=auto;html=1;exitX=0;exitY=0.5;exitDx=0;exitDy=0;entryX=1;entryY=0.5;entryDx=0;entryDy=0;labelBackgroundColor=none;fontColor=#393C56;strokeColor=#E07A5F;fillColor=#F2CC8F;" edge="1" parent="WIyWlLk6GJQsqaUBKTNV-1" source="P4Yn5vLspaWMZoXm2F2t-79" target="P4Yn5vLspaWMZoXm2F2t-16">
          <mxGeometry x="-0.9457" y="10" relative="1" as="geometry">
            <Array as="points">
              <mxPoint x="290" y="840" />
              <mxPoint x="290" y="300" />
            </Array>
            <mxPoint as="offset" />
          </mxGeometry>
        </mxCell>
        <mxCell id="P4Yn5vLspaWMZoXm2F2t-79" value="추가 촬영 Image &lt;br&gt;Data-Set 필요" style="rhombus;whiteSpace=wrap;html=1;rounded=0;sketch=0;fontColor=#393C56;strokeColor=#E07A5F;fillColor=#F2CC8F;" vertex="1" parent="WIyWlLk6GJQsqaUBKTNV-1">
          <mxGeometry x="346.88" y="810" width="150" height="60" as="geometry" />
        </mxCell>
      </root>
    </mxGraphModel>
  </diagram>
</mxfile>
